<?xml version="1.0" encoding="UTF-8"?><svg id="Layer_2" xmlns="http://www.w3.org/2000/svg" viewBox="0 0 449.04 578.67"><defs><style>.cls-1{fill:#fff;}</style></defs><g id="Layer_1-2"><g id="JknH76"><g><path class="cls-1" d="M449.03,576.22c-.01-52.27-.01-104.55,0-156.83,0-1.43-.16-2.81-.58-4.18-3.79-12.15-7.57-24.3-11.36-36.46-12.27-39.39-24.55-78.79-36.82-118.19-13.53-43.46-27.04-86.92-40.56-130.37-12.69-40.76-25.39-81.51-38.06-122.28-.23-.73-.82-1.48-.22-2.38,3.14,.9,6.12,2.19,9.05,3.56,34.02,15.87,56.44,41.75,66.99,77.81,2.96,10.13,4.41,20.49,4.37,31.05-.01,1.67,.35,3.14,2.36,3.09,1.9-.05,2.12-1.54,2.1-3.06-.01-.34-.01-.67-.01-1,0-38.13-.01-76.25,.05-114.38,.01-2.01-.37-2.6-2.51-2.6-32.38,.08-64.76,.06-97.14,.06h-2.84c1.25,.87,2.55,1.26,3.88,1.47,1.52,.25,2.05,.66,1.5,2.42-12.78,40.82-25.47,81.67-38.2,122.51-16.21,52.04-32.45,104.07-48.61,156.13-.63,2.04-1.53,2.63-3.63,2.63-34.88-.07-69.75-.07-104.63,0-2.22,0-2.92-.47-2.92-2.84,.08-33.63,.06-67.26,.06-100.89,0-43.12,.19-86.24-.08-129.35-.15-22.72-10.75-39.68-30.35-51.06-1.18-.68-2.39-1.04-3.79-1.04C52.03,.07,26.98,.06,1.92,.08,1.36,.08,.66-.2,.16,.5c2.11,.76,4.2,1.35,6.15,2.25C27.82,12.75,39.16,29.57,39.17,53.36c.09,155.91,.04,311.82,.04,467.73,0,.92,.01,1.84,0,2.75-.32,22.5-15.55,43.04-37.06,49.65-2.49,.76-2.18,2.23-2.09,3.89,.13,2.1,1.8,1,2.67,1,61.68,.06,123.36,.06,185.03,.06,.42,0,.84,.05,1.25-.02,.51-.08,1.3,.37,1.44-.48,.09-.6-.43-1.05-.92-1.39-.66-.44-1.42-.42-2.17-.48-2.4-.19-4.84-.21-7.2-.63-14.16-2.54-24.29-10.08-28.83-24.08-2.89-8.93-2.32-17.96,.41-26.81,8.92-28.94,17.98-57.85,26.99-86.77,15.09-48.47,30.21-96.93,45.25-145.42,.63-2.04,1.44-2.79,3.61-2.52,20.63,2.53,35.35,13.2,44.07,32,2.98,6.41,4.33,13.28,4.38,20.37,.01,1.61,.54,2.91,2.36,2.85,1.67-.05,2.15-1.31,2.14-2.81-.01-.42,0-.83,0-1.25v-107.13c0-.67,.04-1.34-.04-2-.16-1.31-.83-2.21-2.25-2.17-1.42,.04-2.05,.96-2.18,2.27-.05,.58-.02,1.16-.05,1.74-.53,11.11-3.87,21.22-10.68,30.11-8.93,11.65-20.63,18.63-35.16,20.8-3.91,.59-3.92,.53-2.77-3.13,1.14-3.66,2.29-7.31,3.42-10.96,15.91-51.07,31.82-102.14,47.72-153.21,.42-.2,.83-.36,1.18,.11,.03,1.53,1.05,2.72,1.48,4.13,4.54,14.79,9.14,29.57,13.74,44.35,15.39,49.42,30.78,98.84,46.17,148.26,21.04,67.61,42.07,135.22,63.15,202.82,2.64,8.46,4.98,16.88,4.38,25.91-.98,14.59-10.82,27.1-24.79,31.21-4.27,1.26-8.6,1.88-13.04,1.97-1.47,.04-2.79,.33-3.08,2.25,.53,.04,.93,.1,1.33,.1,26.06,.01,52.11-.02,78.16,.06,2.05,.01,1.8-1,1.8-2.27ZM219.28,292.51c-18.42,59.09-36.85,118.18-55.27,177.27-5.35,17.16-10.65,34.32-16.01,51.48-4.25,13.61-12.03,24.91-22.55,34.43-1.42,1.29-2.09,.93-3.09-.37-7.29-9.51-11.02-20.26-11.04-32.22-.06-37.94-.02-75.89-.02-113.83s.02-77.89-.06-116.83c-.01-2.38,.7-2.83,2.91-2.83,34.36,.07,68.73,.05,103.09,.05,2.91,0,2.92,.01,2.04,2.85Z"/><path class="cls-1" d="M278.56,117.32c.08-.5-.04-1.28,.7-1.2,.64,.07,.64,.75,.48,1.31l-1.18-.11Z"/></g></g></g></svg>