<?xml version="1.0" encoding="UTF-8"?><svg id="Layer_2" xmlns="http://www.w3.org/2000/svg" viewBox="0 0 370.48 383.38"><defs><style>.cls-1{fill:#fff;}</style></defs><g id="Layer_1-2"><path class="cls-1" d="M0,0C.72,.02,1.44,.05,2.16,.05c69.27,0,138.55,0,207.82,0,20.28,0,40.55,0,60.83,0,2.45,0,2.64,.18,2.64,2.67,0,25.83,0,51.66,0,77.49,0,.11,0,.22,0,.33,0,1.08,.05,2.33-1.42,2.35-1.48,.02-1.46-1.23-1.48-2.31-.22-13.06-3.28-25.41-9.69-36.81-9.48-16.84-23.25-28.82-41.31-35.78-.54-.21-1.11-.36-1.92-.62,1.43,4.62,2.77,9,4.13,13.38,33.54,107.71,66.99,215.44,100.71,323.1,5.98,19.09,19.59,30.73,38.91,35.64,2.24,.57,4.62,.59,6.94,.79,1.06,.09,2.17,.16,2.18,1.49,0,1.4-1.09,1.56-2.26,1.56-27.39-.01-54.77,0-82.16,0-11.67,0-23.33,0-35,0-.44,0-.99,.16-1.31-.04-.58-.37-1.39-.95-1.4-1.46,0-.49,.81-1.3,1.38-1.42,1.45-.3,2.98-.22,4.47-.42,14.28-1.9,22.65-13.44,20.46-27.42-1.12-7.18-3.61-14.16-5.77-21.14-25.93-83.42-51.91-166.81-77.88-250.21-.15-.47-.31-.95-.82-1.51-11.43,36.68-22.86,73.35-34.35,110.24,3.63-.07,6.92-.81,10.02-2.12,13.9-5.88,21.39-16.39,22.43-31.47,.03-.44-.09-.98,.11-1.31,.29-.46,.84-1.07,1.26-1.05,.51,.02,1.16,.52,1.46,1,.26,.41,.15,1.07,.15,1.63,0,23.33,0,46.66,0,69.99,0,.17,0,.33,0,.5,0,1.05-.09,2.15-1.44,2.19-1.37,.04-1.5-1.02-1.53-2.1-.15-5.18-1.23-10.15-3.65-14.74-5.98-11.36-15.35-17.81-28.16-19.22-1.32-.15-1.8,.25-2.18,1.48-9.31,30.04-18.67,60.06-28.02,90.08-6.25,20.07-12.5,40.14-18.77,60.2-1.85,5.93-2.74,11.95-1.03,18.03,2.78,9.88,9.62,15.23,19.56,16.89,1.53,.25,3.12,.15,4.63,.45,.64,.13,1.51,.82,1.64,1.39,.22,1.05-.62,1.54-1.66,1.55-.44,0-.89,0-1.33,0-42.39,0-84.77-.01-127.16-.02-.72,0-1.45,.02-2.17,.03v-3c.44-.04,.88-.08,1.33-.12,10.33-.98,18.73-5.51,25.07-13.75,5-6.5,7.13-13.93,7.12-22.07-.03-14.61,0-29.22,0-43.83,0-87.1,0-174.2,.02-261.3,0-7.95-1.87-15.3-6.62-21.74C20.24,8.46,11.19,3.72,0,3V0ZM58.42,2.98l-.09,.3c.17,.12,.32,.25,.5,.34,14.55,7.46,21.78,19.42,21.8,35.7,.03,49.44,.01,98.89,.01,148.33v2.47h2.32c22.56,0,45.11-.02,67.67,.04,1.62,0,2.26-.49,2.74-2.04,17.59-56.56,35.23-113.11,52.86-169.66,1.37-4.38,2.72-8.77,4.1-13.22-.39-.13-.64-.23-.9-.29-6.09-1.41-12.26-1.99-18.51-1.99-43.55,.01-87.11,0-130.66,0-.61,0-1.22,0-1.82,0Zm30.35,364.81c.26-.18,.46-.28,.62-.43,7.15-6.38,12.44-13.97,15.31-23.18,15.5-49.76,31.01-99.52,46.52-149.29,.17-.55,.31-1.12,.47-1.72H80.64v2.28c0,49.48,0,98.97,.02,148.45,0,2.21,.08,4.45,.39,6.64,.9,6.47,3.51,12.2,7.73,17.25Z"/></g></svg>