<svg width="1127" height="511" viewBox="0 0 1127 511" fill="none" xmlns="http://www.w3.org/2000/svg">
<path d="M42.3906 363.223V348.49H53.1098V350.689H44.946V354.603H51.7304V356.802H44.946V361.024H53.1098V363.223H42.3906Z" fill="white"/>
<path d="M54.896 363.223V352.514H57.4288V355.438C57.8359 353.745 58.9213 352.294 61.0019 352.294C63.0824 352.294 64.1001 353.393 64.2131 355.46C64.3071 354.599 64.7227 353.801 65.3812 353.217C66.0397 352.634 66.8953 352.305 67.7862 352.294C69.8893 352.294 70.9974 353.547 70.9974 355.768V363.223H68.4646V356.516C68.4646 355.043 67.8314 354.317 66.3389 354.317C64.8463 354.317 64.2131 355.482 64.2131 357.242V363.245H61.6803V356.538C61.6803 355.065 61.0471 354.339 59.5546 354.339C58.062 354.339 57.4288 355.504 57.4288 357.264V363.267L54.896 363.223Z" fill="white"/>
<path d="M73.5981 367.313V352.514H76.1309V355.372C76.4928 353.701 77.4652 352.272 79.6588 352.272C82.3273 352.272 84.046 354.405 84.046 357.857C84.046 361.31 82.3273 363.443 79.6136 363.443C77.42 363.443 76.4928 362.013 76.1309 360.364V367.313H73.5981ZM78.6638 361.442C80.2468 361.442 81.4453 360.276 81.4453 357.857C81.4453 355.438 80.2468 354.273 78.6638 354.273C76.8772 354.273 76.1309 355.438 76.1309 357.198V358.517C76.1309 360.276 76.8772 361.442 78.6638 361.442Z" fill="white"/>
<path d="M85.5837 360.913C85.5837 359.396 86.7144 358.472 88.4557 357.791L92.1419 356.274C92.0514 355.174 91.5539 354.47 90.0387 354.47C89.3639 354.477 88.7038 354.662 88.1297 355.007C87.5557 355.352 87.0897 355.843 86.7822 356.427L85.2671 354.668C85.8538 353.917 86.6139 353.311 87.486 352.899C88.3581 352.486 89.3178 352.279 90.2875 352.293C90.8641 352.233 91.4473 352.298 91.9943 352.486C92.5413 352.673 93.0382 352.977 93.4483 353.376C93.8584 353.775 94.1713 354.258 94.3639 354.79C94.5566 355.322 94.6242 355.889 94.5616 356.449V360.474C94.5616 360.957 94.7425 361.111 95.1496 361.111H95.8506V363.222H94.2902C94.0036 363.257 93.7126 363.227 93.4397 363.135C93.1669 363.043 92.9193 362.891 92.7162 362.691C92.5131 362.492 92.3597 362.249 92.268 361.983C92.1763 361.717 92.1486 361.434 92.1871 361.155V360.364C92.0449 361.221 91.5938 362.002 90.9145 362.565C90.2351 363.129 89.3716 363.44 88.4783 363.442C88.1116 363.49 87.7385 363.46 87.3849 363.354C87.0313 363.248 86.7056 363.068 86.4304 362.828C86.1551 362.587 85.9368 362.292 85.7906 361.961C85.6445 361.63 85.5738 361.273 85.5837 360.913ZM89.3829 361.529C89.7341 361.568 90.0898 361.534 90.4268 361.43C90.7638 361.326 91.0745 361.155 91.339 360.927C91.6034 360.699 91.8155 360.419 91.9616 360.106C92.1077 359.793 92.1846 359.454 92.1871 359.11V358.011L89.3603 359.242C88.4105 359.66 88.026 360.034 88.026 360.583C88.026 361.133 88.5009 361.529 89.3829 361.529Z" fill="white"/>
<path d="M98.2026 360.298V354.427H96.4839V352.514H98.2026V351.216L100.735 349.644V352.514H104.128V354.427H100.735V359.704C100.735 360.87 101.301 361.155 102.047 361.155C102.441 361.119 102.818 360.979 103.137 360.751C103.455 360.522 103.704 360.214 103.856 359.858L104.648 362.057C104.275 362.521 103.792 362.892 103.241 363.137C102.69 363.381 102.087 363.494 101.482 363.464C101.044 363.501 100.603 363.444 100.189 363.298C99.7759 363.152 99.4003 362.92 99.0883 362.619C98.7763 362.318 98.5355 361.954 98.3825 361.553C98.2296 361.153 98.1682 360.724 98.2026 360.298Z" fill="white"/>
<path d="M106.367 363.223V348.49H108.854V355.438C108.975 354.562 109.421 353.759 110.109 353.18C110.796 352.601 111.676 352.286 112.586 352.294C113.06 352.257 113.536 352.322 113.981 352.486C114.426 352.649 114.828 352.905 115.158 353.238C115.489 353.57 115.74 353.969 115.894 354.406C116.047 354.844 116.099 355.309 116.046 355.768V363.223H113.49V356.516C113.49 355.196 113.038 354.317 111.342 354.317C109.646 354.317 108.854 355.482 108.854 357.241V363.245L106.367 363.223Z" fill="white"/>
<path d="M118.691 350.997V348.49H121.224V350.997H118.691ZM118.691 363.223V352.514H121.224V363.223H118.691Z" fill="white"/>
<path d="M123.259 363.222V361.309L128.212 355.944L129.84 354.493L127.262 354.625H123.666V352.514H132.712V354.427L127.805 359.616L126.063 361.221L128.913 361.111H132.983V363.2L123.259 363.222Z" fill="white"/>
<path d="M133.73 357.879C133.73 354.515 135.878 352.294 138.977 352.294C139.672 352.25 140.369 352.353 141.02 352.596C141.671 352.838 142.26 353.214 142.748 353.699C143.235 354.183 143.609 354.764 143.844 355.402C144.079 356.04 144.17 356.72 144.11 357.396C144.111 357.764 144.081 358.132 144.02 358.495H136.104C136.085 358.887 136.15 359.278 136.296 359.644C136.441 360.011 136.664 360.343 136.949 360.62C137.234 360.898 137.576 361.114 137.953 361.256C138.329 361.397 138.732 361.46 139.135 361.442C139.801 361.497 140.469 361.347 141.042 361.011C141.614 360.675 142.063 360.172 142.323 359.572L143.884 361.156C143.361 361.909 142.647 362.517 141.811 362.922C140.975 363.326 140.045 363.513 139.112 363.465C135.833 363.443 133.73 361.222 133.73 357.879ZM136.172 356.89H141.826C141.826 356.161 141.528 355.462 140.998 354.946C140.468 354.431 139.749 354.141 138.999 354.141C138.249 354.141 137.53 354.431 137 354.946C136.47 355.462 136.172 356.161 136.172 356.89Z" fill="white"/>
<path d="M111.874 505.714V499.029H113.887V505.736C113.887 508.055 114.69 509.034 116.657 509.034C118.624 509.034 119.439 508.099 119.439 505.736V499.029H121.44V505.714C121.44 509.254 119.925 510.87 116.646 510.87C113.367 510.87 111.874 509.254 111.874 505.714Z" fill="#626262"/>
<path d="M128.292 510.694V499.029H130.18L135.076 505.846L136.264 507.671L136.139 505.472V499.029H138.163V510.694H136.207L131.221 503.801L130.09 502.14L130.226 504.273V510.694H128.292Z" fill="#626262"/>
<path d="M145.083 510.694V499.029H149.606C153.315 499.029 155.327 501.228 155.327 504.867C155.327 508.506 153.337 510.694 149.606 510.694H145.083ZM147.107 500.799V508.99H149.368C151.833 508.99 153.202 507.825 153.202 504.9C153.202 501.975 151.833 500.799 149.346 500.799H147.107Z" fill="#626262"/>
<path d="M161.535 510.694V499.029H170.027V500.766H163.559V503.866H168.919V505.615H163.559V508.913H170.027V510.65L161.535 510.694Z" fill="#626262"/>
<path d="M175.884 510.694V499.029H181.3C183.731 499.029 185.563 500.249 185.563 502.646C185.563 503.5 185.223 504.321 184.614 504.937C184.004 505.552 183.173 505.913 182.295 505.944C182.65 506.054 182.978 506.233 183.258 506.472C183.538 506.71 183.765 507.002 183.923 507.33L185.97 510.628H183.697L181.617 507.165C181.416 506.783 181.098 506.472 180.707 506.275C180.315 506.078 179.87 506.005 179.434 506.065H177.964V510.595L175.884 510.694ZM177.908 500.799V504.603H181.096C182.374 504.603 183.46 504.141 183.46 502.734C183.46 501.327 182.329 500.799 181.096 500.799H177.908Z" fill="#626262"/>
<path d="M191.024 508.099L192.449 506.692C192.781 507.428 193.335 508.048 194.038 508.47C194.741 508.892 195.559 509.097 196.384 509.056C197.583 509.056 198.544 508.638 198.544 507.583C198.544 506.527 197.583 506.131 196.022 505.802L194.891 505.56C193.184 505.208 191.375 504.46 191.375 502.261C191.375 500.062 193.331 498.875 195.592 498.875C196.556 498.808 197.518 499.007 198.37 499.449C199.222 499.89 199.929 500.556 200.409 501.371L198.883 502.778C198.601 502.139 198.125 501.599 197.519 501.229C196.913 500.86 196.205 500.679 195.491 500.711C194.36 500.711 193.512 501.228 193.512 502.118C193.512 503.009 194.337 503.515 195.649 503.822L196.995 504.141C198.906 504.592 200.636 505.329 200.636 507.561C200.636 509.793 198.804 510.859 196.361 510.859C193.919 510.859 191.952 510.067 191.024 508.099Z" fill="#626262"/>
<path d="M208.664 510.694V500.799H204.989V499.029H214.385V500.766H210.688V510.661L208.664 510.694Z" fill="#626262"/>
<path d="M217.325 510.694L222.017 499.029H224.403L229.095 510.694H226.834L225.703 507.759H220.638L219.507 510.694H217.325ZM221.26 506.043H225.002L223.792 502.888L223.148 500.788L222.503 502.888L221.26 506.043Z" fill="#626262"/>
<path d="M234.139 510.694V499.029H236.027L240.878 505.824L242.065 507.649L241.941 505.45V499.029H243.965V510.694H242.099L237.112 503.801L235.982 502.14L236.117 504.273V510.694H234.139Z" fill="#626262"/>
<path d="M250.941 510.694V499.029H255.464C259.173 499.029 261.185 501.228 261.185 504.867C261.185 508.506 259.195 510.694 255.464 510.694H250.941ZM252.965 500.799V508.99H255.226C257.691 508.99 259.059 507.825 259.059 504.9C259.059 501.975 257.691 500.799 255.204 500.799H252.965Z" fill="#626262"/>
<path d="M509.932 510.694V499.029H518.423V500.766H511.956V503.866H517.315V505.615H511.956V508.913H518.423V510.65L509.932 510.694Z" fill="#626262"/>
<path d="M523.048 510.694L527.277 504.669L523.308 499.029H525.875L528.747 503.592L531.664 499.029H534.084L530.137 504.746L534.355 510.661H531.811L528.656 505.889L525.569 510.661L523.048 510.694Z" fill="#626262"/>
<path d="M539.545 510.694V499.029H544.452C546.974 499.029 548.975 500.282 548.975 503.064C548.975 505.845 547.019 507 544.452 507H541.569V510.694H539.545ZM541.569 500.799V505.296H544.26C545.639 505.296 546.849 504.79 546.849 503.097C546.849 501.404 545.639 500.799 544.26 500.799H541.569Z" fill="#626262"/>
<path d="M554.753 510.694V499.029H556.777V508.924H562.928V510.661L554.753 510.694Z" fill="#626262"/>
<path d="M567.225 504.845C567.276 503.717 567.666 502.629 568.348 501.715C569.03 500.801 569.973 500.102 571.059 499.705C572.146 499.308 573.329 499.23 574.461 499.481C575.593 499.731 576.624 500.3 577.426 501.116C578.229 501.932 578.767 502.959 578.974 504.07C579.181 505.181 579.048 506.327 578.591 507.364C578.134 508.402 577.374 509.287 576.405 509.908C575.435 510.529 574.299 510.86 573.138 510.859C572.336 510.869 571.539 510.719 570.799 510.417C570.059 510.115 569.39 509.668 568.835 509.103C568.281 508.539 567.851 507.87 567.574 507.137C567.297 506.404 567.178 505.624 567.225 504.845ZM576.938 504.845C576.938 502.437 575.66 500.711 573.15 500.711C570.639 500.711 569.35 502.437 569.35 504.845C569.35 507.253 570.639 508.979 573.15 508.979C575.66 508.979 576.972 507.264 576.972 504.845H576.938Z" fill="#626262"/>
<path d="M585.237 510.694V499.029H590.653C593.096 499.029 594.916 500.249 594.916 502.646C594.917 503.499 594.578 504.318 593.971 504.933C593.364 505.548 592.536 505.91 591.66 505.944C592.014 506.055 592.341 506.235 592.621 506.473C592.901 506.712 593.128 507.003 593.288 507.33L595.335 510.628H593.005L590.925 507.165C590.722 506.786 590.403 506.476 590.012 506.28C589.622 506.083 589.178 506.008 588.743 506.065H587.273V510.595L585.237 510.694ZM587.273 500.799V504.603H590.461C591.728 504.603 592.824 504.141 592.824 502.734C592.824 501.327 591.694 500.799 590.461 500.799H587.273Z" fill="#626262"/>
<path d="M600.841 510.694V499.029H609.344V500.766H602.877V503.866H608.225V505.615H602.877V508.913H609.344V510.65L600.841 510.694Z" fill="#626262"/>
<path d="M871.422 510.694V499.029H873.921L876.499 504.152L877.63 507.132L878.84 504.152L881.418 499.029H883.883V510.694H881.859V505.197L882.119 501.349L880.739 504.647L878.659 508.671H876.612L874.577 504.746L873.163 501.448L873.446 505.296V510.793L871.422 510.694Z" fill="#626262"/>
<path d="M889.05 510.694L893.743 499.029H896.072L900.764 510.694H898.503L897.372 507.759H892.307L891.176 510.694H889.05ZM892.985 506.043H896.739L895.518 502.888L894.873 500.788L894.229 502.888L892.985 506.043Z" fill="#626262"/>
<path d="M907.379 510.694V500.799H903.75V499.029H913.146V500.766H909.403V510.661L907.379 510.694Z" fill="#626262"/>
<path d="M918.223 510.694V499.029H926.714V500.766H920.247V503.866H925.606V505.615H920.247V508.913H926.714V510.65L918.223 510.694Z" fill="#626262"/>
<path d="M932.572 510.694V499.029H937.976C940.419 499.029 942.239 500.249 942.239 502.646C942.24 503.499 941.901 504.318 941.294 504.933C940.687 505.548 939.859 505.91 938.983 505.944C939.337 506.055 939.664 506.235 939.944 506.473C940.224 506.712 940.451 507.003 940.611 507.33L942.658 510.628H940.328L938.248 507.165C938.046 506.784 937.727 506.474 937.337 506.277C936.946 506.08 936.502 506.006 936.065 506.065H934.596V510.595L932.572 510.694ZM934.596 500.799V504.603H937.784C939.051 504.603 940.147 504.141 940.147 502.734C940.147 501.327 939.017 500.799 937.784 500.799H934.596Z" fill="#626262"/>
<path d="M948.175 510.694V499.029H950.199V510.694H948.175Z" fill="#626262"/>
<path d="M955.299 510.694L959.992 499.029H962.321L967.07 510.694H964.808L963.678 507.759H958.601L957.47 510.694H955.299ZM959.245 506.043H962.988L961.767 502.888L961.122 500.788L960.478 502.888L959.245 506.043Z" fill="#626262"/>
<path d="M972.124 510.694V499.029H974.148V508.924H980.299V510.661L972.124 510.694Z" fill="#626262"/>
<path d="M985.614 510.694V499.029H987.637V510.694H985.614Z" fill="#626262"/>
<path d="M993.348 510.694V509.144L998.436 502.723L1000.21 500.678L998.515 500.766H993.709V499.029H1002.47V500.579L997.045 507.418L995.632 509.045L997.011 508.957H1002.83V510.694H993.348Z" fill="#626262"/>
<path d="M1008.33 510.694V499.029H1016.82V500.766H1010.35V503.866H1015.69V505.615H1010.33V508.913H1016.82V510.65L1008.33 510.694Z" fill="#626262"/>
<path d="M250.963 363.223V348.49H256.684C261.366 348.49 263.898 351.304 263.898 355.856C263.898 360.408 261.388 363.223 256.684 363.223H250.963ZM253.518 350.689V361.024H256.39C259.511 361.024 261.23 359.55 261.23 355.856C261.23 352.162 259.511 350.689 256.368 350.689H253.518Z" fill="white"/>
<path d="M265.775 357.879C265.775 354.515 267.924 352.294 271.022 352.294C271.723 352.243 272.427 352.341 273.086 352.582C273.744 352.823 274.34 353.2 274.833 353.688C275.326 354.176 275.704 354.762 275.94 355.406C276.176 356.05 276.265 356.736 276.201 357.417C276.202 357.786 276.172 358.153 276.11 358.517H268.195C268.176 358.909 268.241 359.3 268.386 359.666C268.532 360.032 268.754 360.365 269.04 360.642C269.325 360.92 269.667 361.136 270.043 361.277C270.42 361.419 270.822 361.482 271.225 361.463C271.892 361.519 272.559 361.368 273.132 361.033C273.705 360.697 274.154 360.193 274.414 359.594L275.974 361.177C275.452 361.93 274.738 362.539 273.902 362.944C273.065 363.348 272.136 363.535 271.203 363.486C267.924 363.442 265.775 361.221 265.775 357.879ZM268.218 356.89H273.871C273.871 356.161 273.574 355.461 273.043 354.946C272.513 354.43 271.794 354.141 271.045 354.141C270.295 354.141 269.576 354.43 269.046 354.946C268.516 355.461 268.218 356.161 268.218 356.89Z" fill="white"/>
<path d="M279.005 363.223V354.427H277.331V352.514H279.027V351.766C279.027 349.49 280.588 348.259 283.03 348.259C284.411 348.255 285.749 348.726 286.806 349.589L285.676 351.326C285.339 350.979 284.932 350.702 284.481 350.513C284.03 350.324 283.544 350.227 283.052 350.227C281.922 350.227 281.537 350.777 281.537 351.799V352.514H287.847V363.223H285.246V354.427H281.492V363.223H279.005Z" fill="white"/>
<path d="M290.515 363.222V352.514H293.048V355.438C293.169 354.562 293.615 353.759 294.302 353.18C294.989 352.601 295.87 352.286 296.779 352.294C297.253 352.257 297.73 352.322 298.174 352.485C298.619 352.648 299.021 352.905 299.352 353.237C299.683 353.569 299.934 353.969 300.087 354.406C300.241 354.844 300.293 355.309 300.239 355.768V363.222H297.684V356.516C297.684 355.196 297.232 354.317 295.536 354.317C293.839 354.317 293.048 355.482 293.048 357.241V363.244L290.515 363.222Z" fill="white"/>
<path d="M302.207 357.879C302.207 354.515 304.355 352.294 307.454 352.294C308.149 352.25 308.846 352.353 309.497 352.596C310.148 352.838 310.737 353.214 311.225 353.699C311.712 354.183 312.086 354.764 312.321 355.402C312.556 356.04 312.647 356.72 312.587 357.396C312.588 357.764 312.558 358.132 312.497 358.495H304.582C304.562 358.887 304.627 359.278 304.773 359.644C304.918 360.011 305.141 360.343 305.426 360.62C305.711 360.898 306.053 361.114 306.43 361.256C306.806 361.397 307.209 361.46 307.612 361.442C308.278 361.497 308.946 361.347 309.519 361.011C310.091 360.675 310.54 360.172 310.801 359.572L312.361 361.156C311.839 361.909 311.124 362.517 310.288 362.922C309.452 363.326 308.522 363.513 307.589 363.465C304.401 363.443 302.207 361.222 302.207 357.879ZM304.649 356.89H310.303C310.303 356.161 310.005 355.462 309.475 354.946C308.945 354.431 308.226 354.141 307.476 354.141C306.726 354.141 306.007 354.431 305.477 354.946C304.947 355.462 304.649 356.161 304.649 356.89Z" fill="white"/>
<path d="M439.895 363.223V348.49H442.416V363.223H439.895Z" fill="white"/>
<path d="M444.599 357.879C444.599 354.427 446.329 352.294 448.997 352.294C451.191 352.294 452.163 353.712 452.525 355.394V348.49H455.058V363.223H452.525V360.386C452.163 362.035 451.236 363.464 449.042 363.464C446.329 363.464 444.599 361.332 444.599 357.879ZM450.015 361.463C451.779 361.463 452.525 360.364 452.525 358.561V357.22C452.525 355.46 451.779 354.295 449.992 354.295C448.409 354.295 447.211 355.482 447.211 357.879C447.211 360.276 448.409 361.463 450.015 361.463Z" fill="white"/>
<path d="M457.184 357.879C457.184 354.515 459.332 352.294 462.43 352.294C463.126 352.25 463.823 352.353 464.474 352.596C465.124 352.838 465.714 353.214 466.201 353.699C466.689 354.183 467.063 354.764 467.298 355.402C467.533 356.04 467.624 356.72 467.564 357.396C467.565 357.764 467.535 358.132 467.473 358.495H459.558C459.537 358.887 459.601 359.28 459.746 359.646C459.89 360.013 460.113 360.346 460.399 360.624C460.684 360.902 461.027 361.118 461.404 361.259C461.781 361.4 462.185 361.462 462.588 361.442C463.255 361.497 463.922 361.347 464.495 361.011C465.068 360.675 465.517 360.172 465.777 359.572L467.337 361.156C466.815 361.909 466.101 362.517 465.265 362.922C464.428 363.326 463.499 363.513 462.566 363.465C459.377 363.443 457.184 361.222 457.184 357.879ZM459.626 356.89H465.28C465.28 356.161 464.982 355.462 464.452 354.946C463.921 354.431 463.202 354.141 462.453 354.141C461.703 354.141 460.984 354.431 460.454 354.946C459.924 355.462 459.626 356.161 459.626 356.89Z" fill="white"/>
<path d="M469.248 360.914C469.248 359.396 470.379 358.473 472.12 357.791L475.818 356.274C475.727 355.174 475.23 354.471 473.715 354.471C473.038 354.477 472.377 354.663 471.801 355.008C471.225 355.353 470.757 355.844 470.447 356.428L468.932 354.669C469.518 353.918 470.278 353.312 471.151 352.899C472.023 352.486 472.982 352.279 473.952 352.294C474.529 352.231 475.114 352.295 475.662 352.482C476.211 352.669 476.709 352.973 477.121 353.372C477.532 353.77 477.846 354.254 478.039 354.787C478.233 355.32 478.3 355.888 478.237 356.45V360.474C478.237 360.958 478.418 361.111 478.825 361.111H479.526V363.222H477.966C477.679 363.257 477.388 363.227 477.116 363.135C476.843 363.043 476.595 362.891 476.392 362.692C476.189 362.492 476.036 362.25 475.944 361.983C475.852 361.717 475.824 361.434 475.863 361.155V360.364C475.721 361.221 475.27 362.002 474.59 362.566C473.911 363.13 473.047 363.44 472.154 363.442C471.787 363.49 471.413 363.46 471.059 363.354C470.705 363.248 470.379 363.069 470.103 362.828C469.827 362.588 469.607 362.292 469.46 361.962C469.312 361.631 469.24 361.274 469.248 360.914ZM473.059 361.529C473.41 361.568 473.766 361.534 474.103 361.43C474.44 361.327 474.75 361.155 475.015 360.927C475.279 360.699 475.491 360.419 475.637 360.106C475.784 359.793 475.86 359.454 475.863 359.11V358.011L473.036 359.242C472.075 359.66 471.691 360.034 471.691 360.584C471.691 361.133 472.12 361.529 473.059 361.529Z" fill="white"/>
<path d="M481.867 360.298V354.427H480.16V352.514H481.867V351.216L484.411 349.644V352.514H487.803V354.427H484.411V359.704C484.411 360.87 484.977 361.155 485.723 361.155C486.117 361.119 486.494 360.979 486.812 360.751C487.131 360.522 487.38 360.214 487.532 359.858L488.323 362.057C487.951 362.521 487.468 362.892 486.917 363.137C486.366 363.381 485.763 363.494 485.157 363.464C484.719 363.501 484.277 363.444 483.864 363.298C483.45 363.152 483.074 362.921 482.761 362.619C482.448 362.318 482.206 361.955 482.052 361.554C481.897 361.153 481.834 360.725 481.867 360.298Z" fill="white"/>
<path d="M488.775 357.879C488.775 354.515 490.924 352.294 494.033 352.294C494.729 352.25 495.426 352.353 496.077 352.596C496.728 352.838 497.317 353.214 497.804 353.699C498.292 354.183 498.666 354.764 498.901 355.402C499.136 356.04 499.227 356.72 499.167 357.396C499.168 357.764 499.138 358.132 499.076 358.495H491.161C491.142 358.887 491.207 359.278 491.352 359.644C491.498 360.011 491.72 360.343 492.006 360.62C492.291 360.898 492.633 361.114 493.009 361.256C493.386 361.397 493.788 361.46 494.192 361.442C494.858 361.497 495.525 361.347 496.098 361.011C496.671 360.675 497.12 360.172 497.38 359.572L498.941 361.156C498.418 361.909 497.704 362.517 496.868 362.922C496.032 363.326 495.102 363.513 494.169 363.465C490.912 363.443 488.775 361.222 488.775 357.879ZM491.229 356.89H496.883C496.883 356.161 496.585 355.462 496.055 354.946C495.525 354.431 494.806 354.141 494.056 354.141C493.306 354.141 492.587 354.431 492.057 354.946C491.527 355.462 491.229 356.161 491.229 356.89Z" fill="white"/>
<path d="M608.406 363.223V348.49H614.602C617.791 348.49 620.256 350.062 620.256 353.591C620.256 357.121 617.791 358.561 614.602 358.561H610.961V363.223H608.406ZM610.961 350.689V356.318H614.353C616.095 356.318 617.632 355.68 617.632 353.547C617.632 351.414 616.095 350.645 614.353 350.645L610.961 350.689Z" fill="white"/>
<path d="M621.839 363.222V352.514H624.372V355.548C624.779 353.833 625.887 352.25 627.854 352.25C628.187 352.228 628.52 352.278 628.83 352.396C629.141 352.514 629.42 352.697 629.649 352.932C629.878 353.167 630.051 353.449 630.155 353.757C630.259 354.065 630.292 354.391 630.251 354.712C630.273 355.453 630.102 356.187 629.754 356.845H627.153C627.573 356.398 627.82 355.823 627.854 355.218C627.877 355.076 627.866 354.932 627.823 354.794C627.78 354.657 627.706 354.531 627.606 354.425C627.506 354.32 627.383 354.237 627.246 354.184C627.109 354.131 626.961 354.109 626.814 354.119C625.548 354.119 624.372 355.526 624.372 357.307V363.2L621.839 363.222Z" fill="white"/>
<path d="M630.952 357.879C630.952 354.581 633.123 352.294 636.289 352.294C639.455 352.294 641.671 354.493 641.671 357.879C641.671 361.266 639.5 363.443 636.289 363.443C633.078 363.443 630.952 361.2 630.952 357.879ZM639.093 357.879C639.093 355.394 637.963 354.339 636.312 354.339C634.661 354.339 633.553 355.438 633.553 357.879C633.553 360.32 634.684 361.398 636.312 361.398C637.94 361.398 639.093 360.342 639.093 357.879Z" fill="white"/>
<path d="M644.34 360.298V354.427H642.621V352.514H644.34V351.216L646.873 349.644V352.514H650.265V354.427H646.873V359.704C646.873 360.87 647.438 361.155 648.184 361.155C648.578 361.119 648.955 360.979 649.274 360.751C649.592 360.522 649.841 360.214 649.993 359.858L650.785 362.057C650.412 362.521 649.93 362.892 649.379 363.137C648.828 363.381 648.224 363.494 647.619 363.464C647.181 363.501 646.74 363.444 646.326 363.298C645.913 363.152 645.537 362.92 645.225 362.619C644.913 362.318 644.673 361.954 644.52 361.553C644.367 361.153 644.305 360.724 644.34 360.298Z" fill="white"/>
<path d="M651.079 357.879C651.079 354.581 653.25 352.294 656.416 352.294C659.582 352.294 661.798 354.493 661.798 357.879C661.798 361.266 659.627 363.443 656.416 363.443C653.205 363.443 651.079 361.2 651.079 357.879ZM659.22 357.879C659.22 355.394 658.09 354.339 656.439 354.339C654.788 354.339 653.68 355.438 653.68 357.879C653.68 360.32 654.811 361.398 656.439 361.398C658.067 361.398 659.22 360.342 659.22 357.879Z" fill="white"/>
<path d="M664.467 360.298V354.427H662.748V352.514H664.467V351.216L667 349.644V352.514H670.392V354.427H667V359.704C667 360.87 667.565 361.155 668.311 361.155C668.705 361.119 669.082 360.979 669.401 360.751C669.72 360.522 669.968 360.214 670.12 359.858L670.912 362.057C670.539 362.521 670.057 362.892 669.506 363.137C668.955 363.381 668.351 363.494 667.746 363.464C667.308 363.501 666.867 363.444 666.453 363.298C666.04 363.152 665.664 362.92 665.352 362.619C665.04 362.318 664.8 361.954 664.647 361.553C664.494 361.153 664.432 360.724 664.467 360.298Z" fill="white"/>
<path d="M670.663 365.267L671.862 363.288C672.085 363.692 672.409 364.035 672.804 364.285C673.199 364.535 673.653 364.684 674.123 364.718C674.982 364.718 675.525 364.344 675.932 363.157L676.136 362.563H674.575L670.934 352.514H673.716L675.706 358.583L676.498 361.441L677.289 358.583L679.257 352.514H682.129L678.013 364.014C677.221 366.213 675.932 366.939 674.146 366.939C673.472 366.941 672.806 366.792 672.202 366.502C671.598 366.212 671.071 365.789 670.663 365.267Z" fill="white"/>
<path d="M683.531 367.313V352.514H686.064V355.372C686.425 353.701 687.398 352.272 689.591 352.272C692.26 352.272 693.979 354.405 693.979 357.857C693.979 361.31 692.26 363.443 689.546 363.443C687.353 363.443 686.425 362.013 686.064 360.364V367.313H683.531ZM688.596 361.442C690.179 361.442 691.378 360.276 691.378 357.857C691.378 355.438 690.179 354.273 688.596 354.273C686.81 354.273 686.064 355.438 686.064 357.198V358.517C686.064 360.276 686.81 361.442 688.596 361.442Z" fill="white"/>
<path d="M695.697 357.879C695.697 354.515 697.846 352.294 700.944 352.294C701.643 352.246 702.345 352.347 703 352.589C703.656 352.832 704.249 353.21 704.739 353.697C705.23 354.184 705.606 354.769 705.84 355.412C706.075 356.054 706.164 356.738 706.1 357.417C706.101 357.785 706.071 358.153 706.009 358.517H698.094C698.075 358.909 698.14 359.3 698.286 359.666C698.431 360.032 698.654 360.365 698.939 360.642C699.224 360.92 699.566 361.136 699.942 361.277C700.319 361.419 700.722 361.482 701.125 361.463C701.791 361.519 702.459 361.368 703.031 361.033C703.604 360.697 704.053 360.193 704.313 359.594L705.874 361.177C705.351 361.93 704.637 362.539 703.801 362.943C702.965 363.348 702.035 363.535 701.102 363.486C697.868 363.442 695.697 361.221 695.697 357.879ZM698.14 356.889H703.793C703.793 356.16 703.495 355.461 702.965 354.946C702.435 354.43 701.716 354.141 700.966 354.141C700.217 354.141 699.498 354.43 698.968 354.946C698.437 355.461 698.14 356.16 698.14 356.889Z" fill="white"/>
<path d="M828.873 363.223V350.689H824.237V348.49H836.087V350.689H831.383V363.223H828.873Z" fill="white"/>
<path d="M835.273 357.879C835.273 354.515 837.422 352.294 840.52 352.294C841.215 352.25 841.912 352.353 842.563 352.596C843.214 352.838 843.803 353.214 844.291 353.699C844.778 354.183 845.152 354.764 845.387 355.402C845.623 356.04 845.713 356.72 845.653 357.396C845.655 357.764 845.624 358.132 845.563 358.495H837.648C837.628 358.887 837.693 359.278 837.839 359.644C837.984 360.011 838.207 360.343 838.492 360.62C838.778 360.898 839.119 361.114 839.496 361.256C839.872 361.397 840.275 361.46 840.678 361.442C841.344 361.497 842.012 361.347 842.585 361.011C843.158 360.675 843.606 360.172 843.867 359.572L845.427 361.156C844.905 361.909 844.191 362.517 843.354 362.922C842.518 363.326 841.588 363.513 840.655 363.465C837.422 363.443 835.273 361.222 835.273 357.879ZM837.716 356.89H843.369C843.369 356.161 843.071 355.462 842.541 354.946C842.011 354.431 841.292 354.141 840.542 354.141C839.793 354.141 839.074 354.431 838.543 354.946C838.013 355.462 837.716 356.161 837.716 356.89Z" fill="white"/>
<path d="M846.874 360.825L848.367 359.286C848.759 359.963 849.331 360.524 850.024 360.911C850.716 361.298 851.503 361.496 852.302 361.485C853.432 361.485 854.088 361.111 854.088 360.386C854.088 359.66 853.252 359.286 852.03 359.044L850.56 358.692C848.819 358.297 847.168 357.593 847.168 355.592C847.168 353.591 848.819 352.382 851.352 352.382C852.273 352.328 853.191 352.514 854.014 352.92C854.837 353.325 855.533 353.936 856.033 354.69L854.541 356.23C854.196 355.652 853.701 355.173 853.106 354.841C852.51 354.509 851.835 354.336 851.148 354.339C850.176 354.339 849.52 354.734 849.52 355.438C849.52 356.142 850.108 356.537 851.601 356.867L852.935 357.197C855.4 357.813 856.327 358.78 856.327 360.32C856.327 362.431 854.495 363.486 852.166 363.486C849.837 363.486 847.711 362.519 846.874 360.825Z" fill="white"/>
<path d="M858.86 360.298V354.427H857.141V352.514H858.86V351.216L861.393 349.644V352.514H864.785V354.427H861.393V359.704C861.393 360.87 861.958 361.155 862.704 361.155C863.099 361.119 863.475 360.979 863.794 360.751C864.113 360.522 864.361 360.214 864.514 359.858L865.305 362.057C864.932 362.521 864.45 362.892 863.899 363.137C863.348 363.381 862.744 363.494 862.139 363.464C861.701 363.501 861.26 363.444 860.847 363.298C860.433 363.152 860.058 362.92 859.746 362.619C859.434 362.318 859.193 361.954 859.04 361.553C858.887 361.153 858.826 360.724 858.86 360.298Z" fill="white"/>
<path d="M981.079 363.223V348.49H983.646V363.223H981.079Z" fill="white"/>
<path d="M986.597 363.223V352.514H989.13V355.438C989.548 353.745 990.634 352.294 992.714 352.294C994.795 352.294 995.813 353.393 995.926 355.46C996.02 354.599 996.435 353.801 997.094 353.217C997.752 352.634 998.608 352.305 999.499 352.294C1001.6 352.294 1002.71 353.547 1002.71 355.768V363.223H1000.18V356.516C1000.18 355.043 999.544 354.317 998.051 354.317C996.559 354.317 995.926 355.482 995.926 357.242V363.245H993.393V356.538C993.393 355.065 992.76 354.339 991.267 354.339C989.774 354.339 989.13 355.504 989.13 357.264V363.267L986.597 363.223Z" fill="white"/>
<path d="M1005.3 367.312V352.514H1007.84V355.372C1007.92 354.516 1008.32 353.718 1008.98 353.142C1009.63 352.566 1010.49 352.255 1011.37 352.272C1014.04 352.272 1015.76 354.405 1015.76 357.857C1015.76 361.309 1014.04 363.442 1011.33 363.442C1009.12 363.442 1008.19 362.013 1007.84 360.364V367.312H1005.3ZM1010.38 361.441C1011.96 361.441 1013.16 360.276 1013.16 357.857C1013.16 355.438 1011.96 354.273 1010.38 354.273C1008.59 354.273 1007.84 355.438 1007.84 357.197V358.517C1007.84 360.276 1008.59 361.441 1010.38 361.441Z" fill="white"/>
<path d="M1017.85 363.223V348.49H1020.39V363.223H1017.85Z" fill="white"/>
<path d="M1022.47 357.879C1022.47 354.515 1024.62 352.294 1027.73 352.294C1028.43 352.25 1029.13 352.353 1029.78 352.596C1030.43 352.838 1031.02 353.214 1031.5 353.699C1031.99 354.183 1032.37 354.764 1032.6 355.402C1032.84 356.04 1032.93 356.72 1032.87 357.396C1032.87 357.764 1032.84 358.132 1032.78 358.495H1024.86C1024.84 358.886 1024.9 359.278 1025.05 359.644C1025.19 360.01 1025.41 360.342 1025.7 360.62C1025.98 360.898 1026.32 361.114 1026.7 361.256C1027.07 361.397 1027.48 361.461 1027.88 361.442C1028.55 361.5 1029.22 361.35 1029.79 361.014C1030.37 360.678 1030.82 360.173 1031.08 359.572L1032.64 361.156C1032.12 361.909 1031.4 362.517 1030.57 362.922C1029.73 363.326 1028.8 363.513 1027.87 363.465C1024.66 363.443 1022.47 361.222 1022.47 357.879ZM1024.92 356.89H1030.57C1030.51 356.203 1030.18 355.564 1029.66 355.099C1029.14 354.634 1028.45 354.376 1027.74 354.376C1027.04 354.376 1026.35 354.634 1025.83 355.099C1025.31 355.564 1024.98 356.203 1024.92 356.89Z" fill="white"/>
<path d="M1035.11 363.223V352.514H1037.65V355.438C1037.75 354.582 1038.17 353.79 1038.83 353.212C1039.48 352.633 1040.34 352.307 1041.22 352.294C1043.23 352.294 1044.32 353.393 1044.43 355.46C1044.53 354.599 1044.94 353.801 1045.6 353.217C1046.26 352.634 1047.12 352.305 1048.01 352.294C1050.11 352.294 1051.22 353.547 1051.22 355.768V363.223H1048.69V356.516C1048.69 355.043 1048.05 354.317 1046.56 354.317C1045.07 354.317 1044.43 355.482 1044.43 357.242V363.245H1041.9V356.538C1041.9 355.065 1041.27 354.339 1039.78 354.339C1038.28 354.339 1037.65 355.504 1037.65 357.264V363.267L1035.11 363.223Z" fill="white"/>
<path d="M1053.22 357.879C1053.22 354.515 1055.38 352.294 1058.48 352.294C1059.17 352.25 1059.87 352.353 1060.52 352.596C1061.17 352.838 1061.76 353.214 1062.25 353.699C1062.74 354.183 1063.11 354.764 1063.34 355.402C1063.58 356.04 1063.67 356.72 1063.61 357.396C1063.61 357.764 1063.58 358.132 1063.52 358.495H1055.61C1055.58 358.886 1055.65 359.278 1055.79 359.644C1055.94 360.01 1056.16 360.342 1056.44 360.62C1056.73 360.898 1057.07 361.114 1057.44 361.256C1057.82 361.397 1058.22 361.461 1058.62 361.442C1059.29 361.5 1059.96 361.35 1060.54 361.014C1061.11 360.678 1061.56 360.173 1061.82 359.572L1063.38 361.156C1062.86 361.909 1062.15 362.517 1061.31 362.922C1060.48 363.326 1059.55 363.513 1058.61 363.465C1055.38 363.443 1053.22 361.222 1053.22 357.879ZM1055.66 356.89H1061.32C1061.25 356.203 1060.93 355.564 1060.4 355.099C1059.88 354.634 1059.2 354.376 1058.49 354.376C1057.78 354.376 1057.1 354.634 1056.57 355.099C1056.05 355.564 1055.72 356.203 1055.66 356.89Z" fill="white"/>
<path d="M1065.82 363.222V352.514H1068.35V355.438C1068.47 354.56 1068.92 353.756 1069.61 353.176C1070.3 352.597 1071.18 352.283 1072.09 352.294C1072.56 352.257 1073.04 352.322 1073.49 352.485C1073.93 352.648 1074.33 352.905 1074.66 353.237C1074.99 353.569 1075.25 353.969 1075.4 354.406C1075.55 354.844 1075.6 355.309 1075.55 355.768V363.222H1073V356.516C1073 355.196 1072.53 354.317 1070.84 354.317C1069.14 354.317 1068.35 355.482 1068.35 357.241V363.244L1065.82 363.222Z" fill="white"/>
<path d="M1078.55 360.298V354.427H1076.83V352.514H1078.55V351.216L1081.09 349.644V352.514H1084.48V354.427H1081.09V359.704C1081.09 360.87 1081.66 361.155 1082.4 361.155C1082.8 361.119 1083.17 360.979 1083.49 360.751C1083.81 360.522 1084.06 360.214 1084.21 359.858L1085 362.057C1084.63 362.521 1084.15 362.892 1083.6 363.137C1083.05 363.381 1082.44 363.494 1081.84 363.464C1081.4 363.501 1080.96 363.444 1080.54 363.298C1080.13 363.152 1079.75 362.921 1079.44 362.619C1079.13 362.318 1078.89 361.955 1078.73 361.554C1078.58 361.153 1078.51 360.725 1078.55 360.298Z" fill="white"/>
<path d="M80.0997 505.373H16.9717V506.472H80.0997V505.373Z" fill="#D39F64"/>
<path d="M1126.27 505.373H1046.19V506.472H1126.27V505.373Z" fill="#D39F64"/>
<path d="M483.71 505.373H296.203V506.472H483.71V505.373Z" fill="#D39F64"/>
<path d="M835.907 505.373H640.484V506.472H835.907V505.373Z" fill="#D39F64"/>
<path d="M265.425 250.164C257.508 236.842 246.251 225.687 232.703 217.739C219.154 209.79 203.756 205.308 187.945 204.71C172.134 204.112 156.424 207.417 142.282 214.317C128.139 221.218 116.025 231.489 107.067 244.172L106.129 243.545C115.2 230.712 127.467 220.321 141.784 213.343C156.101 206.364 172.002 203.025 188.005 203.637C204.008 204.248 219.591 208.79 233.301 216.84C247.01 224.889 258.4 236.183 266.408 249.669L265.425 250.164Z" fill="#626262"/>
<path d="M102.443 240.28L111.613 246.173L104.003 247.691L102.443 240.28Z" fill="#626262"/>
<path d="M1019.47 249.065C927.11 93.82 754.653 1.13493 558.134 1.13493C467.959 1.09232 379.251 23.3288 300.336 65.7574C221.421 108.186 154.887 169.416 106.977 243.699L106.027 243.117C154.043 168.679 220.723 107.326 299.808 64.8166C378.894 22.3069 467.792 0.0345951 558.157 0.0904368C755.071 0.0904368 927.902 92.9844 1020.45 248.57L1019.47 249.065Z" fill="#626262"/>
<path d="M102.318 239.961L111.59 245.701L104.003 247.339L102.318 239.961Z" fill="#626262"/>
<path d="M656.484 249.065C600.762 155.412 496.724 99.5373 378.18 99.5373C324.099 99.503 270.886 112.753 223.479 138.057C176.071 163.361 136.005 199.9 107 244.282L106.05 243.699C135.151 199.153 175.354 162.477 222.929 137.076C270.503 111.676 323.906 98.3735 378.18 98.4048C497.132 98.4048 601.542 154.478 657.467 248.515L656.484 249.065Z" fill="#626262"/>
<path d="M102.318 240.533L111.59 246.283L104.003 247.911L102.318 240.533Z" fill="#626262"/>
<path d="M456.494 250.164C448.578 236.84 437.32 225.682 423.771 217.732C410.221 209.783 394.822 205.299 379.009 204.701C363.196 204.103 347.484 207.409 333.341 214.311C319.197 221.213 307.082 231.486 298.125 244.172L297.187 243.545C306.258 230.712 318.524 220.321 332.841 213.343C347.159 206.364 363.06 203.025 379.063 203.637C395.066 204.248 410.648 208.79 424.358 216.84C438.068 224.889 449.458 236.183 457.466 249.669L456.494 250.164Z" fill="#626262"/>
<path d="M293.5 240.28L302.671 246.173L295.061 247.691L293.5 240.28Z" fill="#626262"/>
<path d="M644.204 250.164C636.289 236.84 625.031 225.682 611.482 217.732C597.932 209.783 582.533 205.299 566.72 204.701C550.907 204.103 535.195 207.409 521.052 214.311C506.908 221.213 494.793 231.486 485.836 244.172L484.897 243.545C493.969 230.712 506.235 220.321 520.552 213.343C534.869 206.364 550.771 203.025 566.774 203.637C582.776 204.248 598.359 208.79 612.069 216.84C625.779 224.889 637.169 236.183 645.177 249.669L644.204 250.164Z" fill="#626262"/>
<path d="M481.211 240.28L490.381 246.173L482.771 247.691L481.211 240.28Z" fill="#626262"/>
<path d="M831.926 250.164C824.01 236.84 812.753 225.682 799.203 217.732C785.654 209.783 770.254 205.299 754.441 204.701C738.628 204.103 722.917 207.409 708.773 214.311C694.63 221.213 682.514 231.486 673.558 244.172L672.63 243.545C681.702 230.712 693.968 220.321 708.285 213.343C722.602 206.364 738.504 203.025 754.507 203.637C770.509 204.248 786.092 208.79 799.802 216.84C813.512 224.889 824.902 236.183 832.91 249.669L831.926 250.164Z" fill="#626262"/>
<path d="M668.944 240.28L678.114 246.173L670.493 247.691L668.944 240.28Z" fill="#626262"/>
<path d="M469.237 264.501C450.192 264.5 431.598 270.132 415.924 280.65C400.249 291.168 388.237 306.074 381.482 323.389L380.792 325.236C380.159 326.951 379.582 328.699 379.062 330.458L374.437 342.783C374.437 342.673 374.437 342.563 374.381 342.453L358.743 384.376C352.325 400.796 340.543 414.716 325.206 423.999C309.869 433.282 291.824 437.417 273.838 435.768C255.852 434.119 238.919 426.778 225.636 414.872C212.354 402.965 203.456 387.15 200.307 369.852L193.613 387.663C200.498 405.6 213.01 420.977 229.379 431.618C245.748 442.258 265.144 447.623 284.822 446.953C304.5 446.283 323.462 439.612 339.026 427.885C354.589 416.157 365.965 399.967 371.543 381.605H371.667L390.889 330.491C396.668 313.528 408.104 298.925 423.384 288.996C438.664 279.068 456.915 274.382 475.245 275.68C493.574 276.979 510.933 284.189 524.571 296.167C538.21 308.145 547.347 324.206 550.535 341.805L557.229 323.982C550.559 306.52 538.552 291.461 522.823 280.828C507.093 270.196 488.394 264.498 469.237 264.501ZM203.167 330.469C208.947 313.506 220.384 298.903 235.665 288.975C250.946 279.047 269.198 274.362 287.527 275.663C305.857 276.963 323.215 284.174 336.853 296.153C350.491 308.132 359.627 324.194 362.814 341.794L369.507 323.982C362.862 306.566 350.908 291.537 335.243 280.903C319.579 270.268 300.949 264.536 281.845 264.472C262.741 264.407 244.071 270.013 228.331 280.541C212.591 291.069 200.53 306.018 193.76 323.389L193.07 325.236C192.437 326.951 191.86 328.699 191.34 330.458L186.715 342.783C186.715 342.673 186.715 342.563 186.715 342.453L171.055 384.376C163.944 402.522 150.308 417.546 132.675 426.663C115.043 435.78 94.6084 438.372 75.1604 433.958C55.7125 429.544 38.5697 418.424 26.9096 402.659C15.2496 386.893 9.86306 367.552 11.7485 348.22C13.6339 328.888 22.6633 310.876 37.1632 297.523C51.6631 284.17 70.65 276.382 90.6045 275.601C110.559 274.821 130.128 281.101 145.684 293.279C161.24 305.456 171.728 322.704 175.205 341.827L181.887 324.026C174.165 303.695 159.253 286.7 139.821 276.084C120.388 265.467 97.7043 261.922 75.8295 266.084C53.9547 270.246 34.3172 281.842 20.4326 298.796C6.54795 315.751 -0.677392 336.958 0.0500256 358.62C0.777443 380.282 9.41012 400.985 24.4027 417.023C39.3952 433.061 59.7688 443.387 81.8762 446.152C103.984 448.917 126.381 443.941 145.06 432.114C163.739 420.288 177.479 402.383 183.821 381.605H183.934L203.156 330.491L203.167 330.469ZM656.959 264.501C637.914 264.5 619.32 270.132 603.646 280.65C587.971 291.168 575.959 306.074 569.204 323.389L568.514 325.236C567.881 326.951 567.304 328.699 566.784 330.458L562.148 342.783C562.148 342.673 562.148 342.563 562.148 342.453L546.442 384.376C540.024 400.796 528.243 414.716 512.906 423.999C497.569 433.282 479.523 437.417 461.537 435.768C443.551 434.119 426.618 426.778 413.336 414.872C400.053 402.965 391.155 387.15 388.006 369.852L381.323 387.641C388.201 405.587 400.711 420.974 417.082 431.622C433.452 442.271 452.853 447.642 472.536 446.974C492.22 446.307 511.189 439.634 526.756 427.902C542.324 416.17 553.701 399.973 559.276 381.605H559.389L578.611 330.491C584.387 313.522 595.823 298.914 611.106 288.982C626.389 279.05 644.645 274.363 662.978 275.663C681.311 276.963 698.674 284.177 712.313 296.161C725.951 308.144 735.086 324.212 738.269 341.816L744.951 324.015C738.286 306.547 726.282 291.481 710.552 280.842C694.822 270.203 676.12 264.5 656.959 264.501ZM844.658 264.501C824.303 264.501 804.5 270.936 788.235 282.835C771.97 294.734 760.124 311.452 754.483 330.469L749.859 342.794C749.859 342.673 749.859 342.563 749.859 342.442L734.142 384.376C727.728 400.801 715.949 414.727 700.612 424.015C685.275 433.304 667.227 437.442 649.238 435.796C631.249 434.149 614.313 426.809 601.027 414.901C587.742 402.993 578.843 387.174 575.694 369.874L569.011 387.663C575.884 405.621 588.395 421.019 604.771 431.675C621.148 442.332 640.558 447.706 660.251 447.036C679.944 446.365 698.92 439.685 714.49 427.941C730.06 416.197 741.433 399.986 746.998 381.605H747.111L766.333 330.491C772.114 313.528 783.552 298.925 798.834 288.998C814.116 279.071 832.368 274.387 850.697 275.689C869.027 276.99 886.386 284.203 900.023 296.183C913.659 308.164 922.794 324.227 925.979 341.827L932.673 324.015C926.009 306.549 914.007 291.484 898.279 280.845C882.551 270.206 863.851 264.503 844.692 264.501H844.658ZM1032.36 264.501C1013.31 264.5 994.719 270.132 979.044 280.65C963.37 291.168 951.357 306.074 944.602 323.389L943.913 325.236C943.279 326.951 942.703 328.699 942.183 330.458L937.558 342.783C937.558 342.673 937.558 342.563 937.558 342.453L921.841 384.376C915.423 400.796 903.641 414.716 888.304 423.999C872.967 433.282 854.922 437.417 836.936 435.768C818.95 434.119 802.017 426.778 788.734 414.872C775.452 402.965 766.554 387.15 763.405 369.852L756.756 387.608C763.628 405.559 776.135 420.952 792.505 431.606C808.874 442.261 828.276 447.637 847.963 446.973C867.649 446.309 886.622 439.638 902.193 427.906C917.764 416.174 929.143 399.976 934.72 381.605H934.844L954.066 330.491C960.412 311.924 973.514 296.251 990.909 286.417C1008.3 276.583 1028.79 273.266 1048.53 277.089C1068.26 280.913 1085.88 291.613 1098.07 307.179C1110.26 322.745 1116.18 342.105 1114.72 361.618C1113.26 381.132 1104.53 399.456 1090.15 413.145C1075.78 426.835 1056.75 434.947 1036.66 435.957C1016.56 436.967 996.781 430.805 981.031 418.63C965.28 406.455 954.646 389.105 951.127 369.841L944.455 387.608C950.443 403.221 960.712 416.941 974.149 427.281C987.586 437.622 1003.68 444.188 1020.68 446.267C1037.68 448.346 1054.95 445.858 1070.6 439.075C1086.25 432.292 1099.69 421.471 1109.47 407.786C1119.24 394.101 1124.98 378.075 1126.06 361.445C1127.13 344.815 1123.5 328.217 1115.56 313.45C1107.62 298.684 1095.68 286.312 1081.02 277.677C1066.37 269.043 1049.56 264.474 1032.43 264.468L1032.36 264.501Z" fill="url(#paint0_linear_104_353)"/>
<defs>
<linearGradient id="paint0_linear_104_353" x1="-0.0794198" y1="355.768" x2="1126.27" y2="355.768" gradientUnits="userSpaceOnUse">
<stop stop-color="#805526"/>
<stop offset="1" stop-color="#D39F64"/>
</linearGradient>
</defs>
</svg>
