<?xml version="1.0" standalone="no"?>
<!DOCTYPE svg PUBLIC "-//W3C//DTD SVG 20010904//EN"
 "http://www.w3.org/TR/2001/REC-SVG-20010904/DTD/svg10.dtd">
<svg version="1.0" xmlns="http://www.w3.org/2000/svg"
 width="258.000000pt" height="258.000000pt" viewBox="0 0 258.000000 258.000000"
 preserveAspectRatio="xMidYMid meet">
<metadata>
Created by potrace 1.14, written by Peter Selinger 2001-2017
</metadata>
<g transform="translate(0.000000,258.000000) scale(0.100000,-0.100000)"
fill="#000000" stroke="none">
<path d="M345 2551 c51 -29 86 -68 107 -118 18 -44 20 -2181 2 -2248 -16 -62
-68 -125 -123 -150 -23 -10 -41 -21 -41 -26 0 -4 192 -8 426 -8 390 0 472 3
385 14 -59 8 -99 34 -122 81 -30 62 -28 93 15 229 20 66 53 172 72 235 20 63
39 126 44 140 5 14 25 79 45 145 20 66 40 131 45 145 5 14 25 79 45 145 45
149 45 151 81 146 98 -12 190 -116 193 -218 1 -13 6 -23 11 -23 6 0 10 94 10
261 0 242 -8 309 -24 208 -13 -81 -62 -145 -139 -180 -36 -16 -77 -25 -77 -16
0 1 14 45 31 97 17 52 32 100 33 105 1 6 7 26 13 45 11 34 25 78 113 358 22
72 43 132 45 132 2 0 19 -51 39 -112 72 -233 138 -445 156 -503 10 -33 39
-127 65 -210 191 -609 306 -986 311 -1017 17 -102 -35 -175 -139 -193 -65 -12
-35 -15 141 -14 l182 1 0 360 0 360 -61 197 c-97 311 -199 639 -224 721 -13
41 -47 149 -75 240 -28 91 -84 271 -125 400 -40 129 -76 243 -80 253 -10 23 8
22 59 -5 176 -95 291 -271 295 -455 1 -18 6 -33 11 -33 6 0 10 96 10 269 l0
269 -227 1 c-126 0 -222 -3 -216 -7 10 -6 7 -25 -11 -83 -21 -66 -60 -190
-207 -664 -22 -71 -63 -202 -90 -290 -28 -88 -55 -175 -60 -192 l-11 -33 -244
0 -244 0 0 28 c0 15 -1 263 -3 552 l-2 525 -28 51 c-16 28 -46 65 -68 81 l-40
31 -177 1 -177 1 50 -29z m925 -1266 c0 -2 -36 -120 -81 -262 -44 -142 -100
-321 -124 -398 -24 -77 -60 -194 -80 -260 -21 -66 -48 -140 -61 -165 -29 -56
-71 -103 -84 -95 -13 8 -40 60 -46 88 -3 16 -7 975 -4 1084 0 10 58 12 240 12
132 0 240 -2 240 -4z"/>
</g>
</svg>
