<?xml version="1.0" standalone="no"?>
<!DOCTYPE svg PUBLIC "-//W3C//DTD SVG 20010904//EN"
 "http://www.w3.org/TR/2001/REC-SVG-20010904/DTD/svg10.dtd">
<svg version="1.0" xmlns="http://www.w3.org/2000/svg"
 width="766.000000pt" height="766.000000pt" viewBox="0 0 766.000000 766.000000"
 preserveAspectRatio="xMidYMid meet">
<metadata>
Created by potrace 1.14, written by Peter Selinger 2001-2017
</metadata>
<g transform="translate(0.000000,766.000000) scale(0.100000,-0.100000)"
fill="#000000" stroke="none">
<path d="M130 7630 c0 -26 3 -29 53 -35 109 -14 230 -59 311 -115 55 -37 176
-159 176 -176 0 -8 4 -14 8 -14 7 0 75 -123 78 -140 0 -3 6 -25 13 -50 15 -52
21 -82 26 -127 1 -17 5 -36 9 -41 3 -6 3 -13 -2 -15 -4 -3 -7 -20 -5 -39 2
-41 3 -88 3 -108 0 -8 0 -40 0 -70 1 -30 1 -59 0 -65 -2 -5 -1 -14 0 -20 1 -5
1 -35 1 -65 -1 -30 -1 -66 0 -80 0 -14 0 -32 0 -40 -3 -40 -1 -113 3 -117 2
-2 0 -18 -4 -34 -5 -16 -5 -31 0 -34 4 -3 4 -21 0 -40 -4 -19 -5 -35 -1 -35 3
0 5 -19 4 -42 -5 -79 -5 -130 0 -135 3 -2 1 -18 -3 -34 -5 -16 -5 -31 0 -34 4
-3 4 -21 0 -40 -4 -19 -5 -35 -1 -35 3 0 5 -19 4 -42 -2 -24 -3 -59 -3 -78 0
-19 0 -44 0 -55 0 -11 0 -29 0 -40 1 -11 1 -26 1 -32 -1 -19 -1 -59 0 -113 0
-19 0 -55 -1 -80 0 -25 -1 -51 -1 -57 1 -7 1 -23 1 -35 0 -13 -1 -34 -3 -48
-1 -14 0 -42 4 -62 3 -21 3 -38 -2 -38 -4 0 -4 -13 1 -30 5 -16 5 -32 0 -35
-5 -3 -5 -19 0 -35 5 -18 5 -32 -1 -36 -5 -3 -7 -10 -3 -15 8 -13 9 -117 1
-125 -3 -3 -1 -18 3 -34 4 -16 6 -31 3 -34 -4 -3 -5 -29 -4 -58 1 -29 1 -59 1
-65 0 -7 0 -20 0 -28 0 -8 0 -22 0 -30 0 -8 0 -22 0 -30 0 -8 0 -22 0 -30 1
-14 1 -61 1 -102 0 -10 0 -36 0 -58 0 -22 0 -49 -1 -60 -1 -11 -1 -26 -1 -32
1 -7 1 -20 1 -28 0 -8 0 -22 0 -30 0 -8 0 -22 0 -30 0 -8 0 -22 0 -30 0 -8 0
-21 1 -27 1 -22 0 -122 -1 -143 -1 -11 -1 -26 -1 -32 1 -7 1 -20 1 -28 0 -8 0
-22 0 -30 0 -8 0 -22 0 -30 0 -8 0 -22 0 -30 0 -8 0 -38 1 -65 1 -28 -1 -53
-4 -56 -3 -3 -1 -18 3 -34 4 -16 6 -31 2 -34 -7 -8 -5 -112 2 -125 4 -5 2 -12
-3 -15 -6 -4 -6 -18 -1 -36 5 -17 5 -32 0 -35 -5 -3 -6 -15 0 -29 4 -12 4 -29
0 -36 -5 -8 -6 -18 -3 -23 7 -12 7 -106 0 -113 -3 -3 -1 -19 3 -35 5 -16 5
-31 0 -34 -4 -3 -4 -20 0 -39 4 -19 4 -40 0 -46 -4 -7 -4 -25 0 -41 5 -15 6
-30 2 -33 -7 -8 -5 -112 2 -125 4 -5 2 -12 -3 -15 -6 -4 -6 -18 -1 -36 5 -17
5 -32 0 -35 -5 -3 -6 -15 0 -29 4 -12 4 -29 0 -36 -5 -8 -6 -18 -3 -23 7 -12
7 -106 0 -113 -3 -3 -1 -18 3 -34 4 -16 5 -31 2 -35 -7 -7 -5 -115 2 -122 3
-3 1 -15 -4 -27 -4 -13 -4 -29 0 -36 5 -8 5 -21 0 -30 -5 -9 -5 -22 0 -30 5
-8 5 -21 0 -30 -5 -9 -5 -22 -1 -29 5 -7 5 -29 2 -49 -4 -20 -4 -50 -1 -67 4
-16 3 -39 -1 -51 -4 -11 -3 -27 1 -34 5 -8 5 -21 0 -30 -5 -9 -5 -22 0 -30 5
-8 5 -21 0 -30 -5 -9 -5 -22 -1 -28 4 -7 5 -35 1 -62 -4 -27 -3 -55 1 -62 4
-6 4 -19 -1 -28 -5 -9 -5 -22 0 -29 4 -8 4 -27 0 -42 -5 -16 -5 -29 0 -29 5 0
5 -13 0 -29 -4 -16 -6 -32 -3 -34 7 -7 8 -106 1 -113 -4 -3 -2 -19 2 -35 5
-16 6 -29 2 -29 -8 0 -6 -115 2 -136 3 -7 1 -16 -4 -19 -5 -3 -6 -15 0 -29 4
-12 4 -29 0 -36 -5 -8 -5 -21 0 -30 5 -9 5 -22 0 -30 -5 -8 -6 -18 -3 -23 7
-12 7 -106 0 -113 -3 -3 -1 -19 3 -35 5 -16 6 -29 2 -29 -8 0 -7 -109 1 -117
3 -3 2 -16 -3 -29 -5 -13 -5 -26 -1 -29 5 -3 5 -21 1 -40 -4 -20 -4 -38 1 -41
5 -3 6 -11 2 -17 -4 -6 -8 -27 -10 -47 -2 -19 -11 -60 -19 -90 -8 -30 -16 -60
-17 -65 -11 -51 -108 -196 -174 -261 -45 -44 -181 -134 -203 -134 -9 0 -20 -4
-25 -9 -12 -11 -132 -41 -183 -45 -33 -3 -37 -7 -40 -34 l-3 -30 1318 2 1318
1 3 21 c4 26 -12 33 -92 40 -33 3 -69 10 -79 16 -10 5 -21 7 -24 4 -3 -3 -15
0 -27 6 -11 7 -23 13 -26 13 -23 3 -86 44 -131 84 -97 86 -142 194 -143 346
-1 99 5 150 23 196 5 13 8 26 8 29 0 3 17 59 37 125 21 66 51 161 66 210 16
50 38 119 49 155 12 36 24 76 27 89 3 14 7 28 10 33 5 7 51 155 59 188 2 8 13
42 23 75 21 63 95 296 97 305 7 28 30 106 45 150 22 65 93 291 95 305 2 6 17
57 36 115 18 58 33 107 34 110 1 3 16 52 34 109 18 57 34 109 36 115 1 6 5 18
8 26 3 8 24 76 47 150 23 74 48 152 56 173 8 20 11 37 9 37 -3 0 -1 9 5 21 6
11 13 29 15 39 2 10 24 85 50 167 26 81 58 186 73 233 14 47 30 91 36 98 12
16 88 8 175 -18 103 -32 200 -89 272 -160 135 -133 201 -271 216 -445 6 -70
15 -87 43 -82 13 2 15 93 17 737 2 404 -1 741 -6 749 -5 8 -17 11 -28 7 -17
-5 -21 -19 -26 -74 -19 -201 -118 -384 -267 -494 -89 -66 -208 -120 -295 -134
-16 -3 -41 -7 -54 -9 -21 -4 -23 -2 -17 30 4 19 22 79 40 132 18 54 33 100 33
103 0 3 15 52 34 110 18 58 34 110 35 115 4 17 41 134 79 255 20 63 38 122 40
130 4 18 64 208 72 230 7 18 11 30 16 50 2 8 7 22 10 30 3 8 22 69 42 135 20
66 59 191 86 278 28 87 52 166 54 175 2 9 9 31 15 47 6 17 14 39 16 50 3 11 6
25 8 30 2 11 60 193 81 260 l13 40 18 -40 c10 -22 19 -44 20 -50 0 -5 3 -17 6
-25 11 -29 60 -185 62 -195 1 -5 5 -16 9 -22 5 -7 6 -13 3 -13 -3 0 2 -19 10
-42 9 -24 17 -50 19 -58 2 -8 10 -34 19 -57 8 -24 13 -43 9 -43 -3 0 1 -7 8
-17 8 -9 13 -19 13 -22 -1 -3 0 -10 2 -16 7 -22 48 -161 50 -170 1 -5 15 -50
31 -100 16 -49 51 -162 77 -250 27 -88 52 -169 57 -180 14 -36 89 -282 89
-294 0 -6 4 -19 10 -29 8 -15 82 -249 83 -262 0 -3 13 -42 28 -87 15 -46 25
-83 22 -83 -3 0 -1 -6 4 -12 6 -7 16 -35 23 -63 7 -27 16 -54 19 -60 3 -5 6
-14 7 -20 1 -5 12 -44 25 -85 13 -41 24 -77 24 -80 1 -3 4 -12 8 -20 8 -22 69
-221 71 -234 1 -6 7 -24 13 -41 13 -34 56 -173 59 -193 1 -8 6 -21 10 -30 9
-20 8 -16 23 -72 6 -25 16 -54 20 -65 5 -11 13 -36 19 -55 6 -19 23 -75 38
-125 15 -49 28 -92 29 -95 1 -3 10 -32 20 -65 11 -33 19 -62 20 -65 0 -3 20
-66 44 -140 23 -74 60 -193 82 -265 22 -71 54 -172 71 -223 16 -51 31 -98 32
-105 2 -7 6 -19 9 -27 3 -8 13 -37 21 -65 56 -189 245 -797 261 -837 8 -21 13
-38 10 -38 -3 0 2 -17 10 -37 13 -31 50 -161 60 -214 31 -154 20 -261 -38
-375 -67 -132 -229 -230 -397 -239 -37 -2 -80 -20 -80 -34 0 -5 6 -13 13 -19
15 -13 2396 -15 2416 -3 17 11 10 46 -9 47 -8 1 -17 3 -20 4 -3 1 -27 4 -55 6
-55 4 -59 5 -125 23 -114 31 -249 92 -347 158 -77 51 -200 174 -253 252 -68
102 -140 270 -174 406 -7 27 -89 283 -96 300 -5 11 -12 36 -16 55 -3 19 -9 40
-12 45 -4 6 -7 15 -9 20 -1 6 -25 84 -53 175 -29 91 -53 170 -54 175 -1 6 -7
24 -13 40 -11 29 -77 239 -130 415 -14 47 -29 94 -34 105 -4 11 -22 67 -39
125 -44 145 -70 227 -87 280 -14 43 -102 324 -107 345 -2 6 -6 17 -9 25 -10
27 -78 251 -82 270 -2 10 -9 29 -16 42 -7 13 -12 24 -11 26 1 1 2 3 1 5 0 1
-2 9 -4 17 -2 8 -27 89 -55 180 -64 203 -73 234 -75 240 -4 15 -57 187 -62
200 -3 8 -7 20 -9 25 -12 44 -72 235 -149 480 -31 99 -58 185 -59 190 -4 16
-66 217 -76 245 -5 14 -39 122 -76 240 -36 118 -88 287 -116 375 -27 88 -54
176 -60 195 -5 19 -15 53 -23 75 -24 69 -95 300 -94 305 0 3 -5 19 -11 35 -7
17 -13 37 -15 45 -4 15 -65 209 -92 290 -8 25 -16 52 -18 60 -2 8 -11 40 -20
70 -34 107 -87 276 -102 320 -8 25 -16 53 -18 63 -2 10 -24 82 -49 160 -80
252 -106 340 -102 344 6 6 97 -32 191 -79 83 -42 238 -142 290 -187 84 -73
219 -220 278 -303 60 -84 168 -286 195 -363 5 -16 13 -39 18 -50 4 -11 9 -29
11 -40 2 -11 7 -31 13 -45 8 -22 19 -75 35 -165 6 -38 15 -135 19 -203 3 -57
14 -76 39 -66 13 5 17 19 17 58 4 377 0 1578 -4 1585 -4 6 -1024 10 -2731 10
l-2725 0 0 -29z m2855 -33 c649 -2 1191 -6 1205 -10 14 -4 39 -9 55 -12 83
-14 86 -16 80 -38 -4 -12 -19 -62 -35 -112 -69 -221 -103 -330 -105 -340 -1
-5 -5 -17 -8 -25 -10 -26 -99 -312 -102 -329 -2 -9 -14 -50 -28 -91 -23 -69
-77 -245 -114 -365 -8 -27 -24 -76 -35 -107 -10 -31 -21 -65 -23 -75 -2 -10
-10 -38 -18 -63 -8 -25 -34 -106 -57 -180 -23 -74 -57 -184 -77 -245 -19 -60
-36 -117 -38 -125 -2 -8 -13 -44 -25 -80 -12 -36 -23 -69 -24 -75 -7 -28 -32
-109 -56 -185 -25 -75 -82 -257 -85 -270 -4 -16 -57 -188 -62 -200 -8 -18 -7
-17 -17 -60 -5 -19 -12 -41 -17 -50 -6 -12 -30 -88 -45 -142 -1 -5 -3 -10 -4
-13 -1 -3 -4 -9 -5 -15 -1 -5 -3 -11 -5 -12 -1 -2 -4 -12 -6 -23 -3 -11 -6
-24 -7 -30 -6 -21 -89 -281 -94 -295 -4 -8 -7 -17 -7 -20 -10 -43 -33 -110
-43 -127 l-14 -21 -422 0 c-232 0 -426 -1 -432 -2 -5 -1 -12 -2 -15 -1 -8 3
-214 4 -225 1 -5 -1 -14 -2 -20 -1 -14 3 -208 3 -220 1 -5 -1 -14 -1 -20 0 -5
1 -24 1 -42 0 l-32 -1 -1 1548 c0 851 -2 1559 -5 1573 -2 14 -6 42 -9 64 -18
116 -89 263 -173 356 -42 47 -182 160 -198 160 -3 0 -18 8 -33 18 l-26 17 34
5 c19 3 134 4 255 3 121 -2 751 -4 1400 -6z m175 -3801 c0 -3 -5 -17 -11 -33
-6 -15 -13 -37 -15 -47 -5 -25 -35 -118 -42 -131 -3 -5 -7 -16 -7 -25 -1 -8
-23 -81 -49 -162 -26 -81 -49 -155 -50 -165 -2 -10 -13 -45 -24 -78 -12 -33
-39 -121 -62 -195 -23 -74 -48 -152 -56 -172 -7 -21 -11 -38 -8 -38 4 0 1 -7
-6 -15 -7 -8 -10 -15 -7 -15 4 0 -2 -20 -13 -45 -11 -25 -17 -45 -15 -45 2 0
-3 -19 -11 -42 -9 -24 -17 -50 -19 -58 -5 -20 -58 -191 -83 -265 -11 -33 -28
-89 -38 -125 -9 -36 -21 -69 -25 -74 -5 -6 -9 -16 -9 -24 0 -8 -21 -81 -47
-161 -26 -80 -48 -150 -49 -156 -2 -11 -24 -83 -54 -175 -43 -135 -94 -296
-96 -306 -1 -6 -14 -51 -30 -100 -15 -49 -29 -91 -29 -94 -5 -23 -39 -127 -43
-135 -4 -5 -7 -17 -9 -25 -5 -31 -55 -175 -79 -229 -24 -52 -105 -182 -129
-207 -5 -6 -24 -26 -41 -45 -17 -19 -47 -49 -66 -67 l-35 -33 -39 58 c-59 88
-91 163 -112 263 -3 14 -7 733 -9 1598 l-3 1572 710 0 c391 0 710 -2 710 -4z"/>
</g>
</svg>
