<?xml version="1.0" standalone="no"?>
<!DOCTYPE svg PUBLIC "-//W3C//DTD SVG 20010904//EN"
 "http://www.w3.org/TR/2001/REC-SVG-20010904/DTD/svg10.dtd">
<svg version="1.0" xmlns="http://www.w3.org/2000/svg"
 width="800.000000pt" height="800.000000pt" viewBox="0 0 800.000000 800.000000"
 preserveAspectRatio="xMidYMid meet">
<metadata>
Created by potrace 1.14, written by Peter Selinger 2001-2017
</metadata>
<g transform="translate(0.000000,800.000000) scale(0.100000,-0.100000)"
fill="#000000" stroke="none">
<path d="M0 4000 l0 -4000 4000 0 4000 0 0 4000 0 4000 -4000 0 -4000 0 0
-4000z m3450 1426 c161 -30 315 -121 394 -235 l28 -40 -54 -76 -53 -77 -20 28
c-109 152 -257 234 -424 234 -179 0 -285 -75 -327 -232 -9 -36 -14 -112 -14
-240 l0 -188 338 -2 337 -3 3 -82 3 -83 -341 0 -340 0 0 -915 0 -915 -105 0
-105 0 0 915 0 915 -165 0 -166 0 3 83 3 82 161 3 161 2 6 203 c6 215 14 265
62 363 99 202 349 308 615 260z m1386 -816 c211 -54 349 -190 416 -412 21 -71
22 -90 27 -698 4 -446 9 -631 18 -645 28 -50 51 -60 152 -65 l96 -5 3 -93 3
-94 -133 4 c-145 4 -203 21 -260 75 -57 54 -72 112 -76 292 l-4 164 -27 -69
c-51 -131 -148 -259 -264 -350 -135 -106 -277 -154 -453 -154 -121 0 -186 12
-271 50 -258 117 -308 466 -99 696 107 119 172 155 805 445 l313 143 -6 94
c-12 156 -43 246 -113 323 -94 103 -256 149 -460 128 -222 -23 -419 -141 -528
-317 -21 -34 -41 -62 -44 -62 -4 0 -37 30 -74 68 l-67 67 36 54 c74 110 233
240 369 302 79 35 195 68 284 79 94 12 270 2 357 -20z"/>
<path d="M4689 3546 c-396 -187 -499 -245 -564 -317 -107 -119 -112 -302 -11
-403 100 -101 306 -123 510 -55 173 58 356 229 428 400 20 49 22 74 26 264 2
116 2 229 0 252 l-3 42 -386 -183z"/>
</g>
</svg>
